<svg viewBox="0 0 50 47" fill="none" xmlns="http://www.w3.org/2000/svg">
  <path fill-rule="evenodd" clip-rule="evenodd" fill="currentColor" d="M43.9274 0.00403496C43.9828 0.00849007 44.0757 0.0374483 44.1354 0.0708616C44.1974 0.102047 44.3014 0.180012 44.3678 0.242383C44.4519 0.31812 44.5227 0.413905 44.5846 0.531965C44.6333 0.62775 44.7218 0.81932 44.7772 0.952973C44.8325 1.08663 44.9232 1.27374 44.9763 1.36507C45.0272 1.4564 45.1755 1.70366 45.3016 1.91082C45.4277 2.11798 45.5981 2.38974 45.6822 2.51226C45.7663 2.63478 45.9079 2.82635 45.9942 2.9355C46.0827 3.04465 46.2442 3.23844 46.3527 3.36319C46.4699 3.49907 46.6448 3.66391 46.782 3.77306C46.9103 3.8733 47.0541 3.98022 47.1028 4.0114C47.1515 4.04259 47.2577 4.09605 47.3418 4.13169C47.4524 4.17847 47.552 4.19852 47.7401 4.21634C47.9193 4.23193 48.0145 4.25198 48.0853 4.28985C48.1406 4.31658 48.2181 4.37895 48.2579 4.42796C48.2999 4.47696 48.3442 4.55715 48.3575 4.60616C48.3708 4.65517 48.3796 4.771 48.3774 4.86233C48.3752 4.95366 48.3641 5.08508 48.3508 5.15191C48.3376 5.21874 48.2756 5.39917 48.2159 5.55287C48.1539 5.70657 48.0964 5.84022 48.0875 5.85359C48.0787 5.86696 48.0012 6.01175 47.9149 6.17659C47.8308 6.34142 47.7113 6.56195 47.6494 6.66665C47.5896 6.77134 47.448 7.00746 47.3374 7.19012C47.198 7.41956 47.074 7.59108 46.9413 7.73587C46.8351 7.85171 46.6868 8.00763 46.47 8.2148L46.4722 11.4782H47.7999V11.3846C47.7999 11.3311 47.8198 11.2198 47.8463 11.1329C47.8707 11.046 47.9348 10.8968 47.9835 10.801C48.0455 10.6807 48.1163 10.5871 48.1982 10.5136C48.2645 10.4513 48.384 10.3711 48.4637 10.3332C48.5898 10.2731 48.6363 10.2641 48.8399 10.2552C49.0612 10.2486 49.0789 10.2508 49.2271 10.3176C49.34 10.3688 49.4196 10.4245 49.517 10.527C49.59 10.6027 49.6852 10.7163 49.7294 10.7765C49.7715 10.8389 49.8378 10.948 49.8755 11.0215C49.9131 11.095 49.9573 11.2109 49.9728 11.2777C49.9905 11.3534 49.9994 11.5762 49.9994 11.868C50.0016 12.3358 50.0016 12.3358 49.9308 12.5474C49.891 12.6632 49.8201 12.8437 49.7737 12.9483C49.725 13.053 49.6387 13.2179 49.5812 13.3159C49.5236 13.4139 49.4351 13.5498 49.382 13.6166C49.3311 13.6834 49.2094 13.8193 49.1143 13.9173C49.0191 14.0176 48.8753 14.1445 48.7956 14.2002C48.716 14.2582 48.592 14.3339 48.519 14.3695C48.446 14.4052 48.3154 14.4564 48.2314 14.4831C48.0853 14.5277 48.03 14.5299 46.4722 14.5299L46.4832 29.3543L46.658 29.577C46.7554 29.6996 46.9103 29.9179 47.001 30.0604C47.094 30.203 47.198 30.37 47.302 30.5438L47.4015 30.477C47.4569 30.4413 47.541 30.399 47.5896 30.3879C47.6383 30.3745 47.7423 30.3678 47.822 30.3723C47.9149 30.3767 48.0079 30.4012 48.0875 30.4391C48.1539 30.4703 48.2601 30.5349 48.3243 30.5817C48.3862 30.6307 48.4902 30.7398 48.5566 30.8289C48.6208 30.9158 48.7115 31.0606 48.758 31.1519C48.8222 31.2767 48.8509 31.3658 48.8775 31.5373C48.9018 31.7021 48.9085 31.8536 48.8974 32.1164C48.8886 32.3748 48.8731 32.5219 48.8399 32.6511C48.8133 32.7491 48.7713 32.8738 48.7447 32.9295C48.7182 32.9852 48.1251 33.8562 47.4259 34.8675C46.7266 35.8788 46.1093 36.7542 46.0539 36.8121C45.992 36.879 45.8924 36.9502 45.7973 36.997C45.6512 37.0661 45.6291 37.0728 45.41 37.0728C45.2573 37.0728 45.1356 37.0616 45.056 37.0371C44.9608 37.0082 44.9077 36.9725 44.8126 36.8745C44.7462 36.8054 44.651 36.6785 44.6023 36.5938C44.5537 36.507 44.4386 36.2775 44.3501 36.0815C44.2594 35.8855 44.1022 35.5447 44.0005 35.3241C43.8987 35.1036 43.7991 34.8875 43.777 34.8452C43.7548 34.8029 43.673 34.6559 43.5955 34.5222C43.5181 34.3886 43.3964 34.1814 43.3233 34.0656C43.2503 33.9497 43.133 33.7782 43.0622 33.6869C42.9936 33.5955 42.8874 33.473 42.8277 33.4173C42.7701 33.3616 42.6728 33.2748 42.6108 33.2258C42.5511 33.1768 42.436 33.0943 42.3563 33.0431C42.2767 32.9919 42.1373 32.9273 42.0465 32.8961C41.9558 32.8671 41.7899 32.827 41.6814 32.8092C41.5354 32.7825 41.4513 32.7535 41.365 32.7023C41.2986 32.6622 41.2167 32.5931 41.1835 32.5508C41.1481 32.5085 41.0972 32.4238 41.0685 32.3615C41.022 32.2568 41.0176 32.2234 41.0176 31.4482L41.0972 31.2143C41.1415 31.0851 41.2278 30.8802 41.2898 30.7576C41.3495 30.6351 41.4646 30.4235 41.5442 30.2899C41.6239 30.1562 41.7434 29.9646 41.812 29.8666C41.8784 29.7686 41.9979 29.6104 42.2236 29.3431V14.5745H40.8074V14.6702C40.8074 14.7215 40.7875 14.8329 40.7609 14.9197C40.7366 15.0066 40.6724 15.1559 40.6237 15.2516C40.5617 15.3719 40.4909 15.4655 40.4091 15.539C40.3427 15.6014 40.2232 15.6816 40.1435 15.7194C40.0152 15.7818 39.9753 15.7885 39.7563 15.7952C39.5195 15.8018 39.5084 15.7996 39.358 15.7261C39.2473 15.6726 39.1544 15.6036 39.0261 15.4744C38.8933 15.3452 38.8269 15.2561 38.7649 15.1314C38.7207 15.04 38.6654 14.8997 38.6455 14.8195C38.6123 14.7014 38.6056 14.5856 38.6056 14.1958C38.6078 13.7191 38.6078 13.7169 38.6786 13.5052C38.7163 13.3894 38.7871 13.209 38.8335 13.1043C38.8822 12.9996 38.9685 12.8347 39.0261 12.7367C39.0836 12.6387 39.1721 12.5028 39.2252 12.436C39.2761 12.3692 39.3978 12.2333 39.493 12.1353C39.5881 12.0351 39.7319 11.9081 39.8116 11.8524C39.8913 11.7945 40.0152 11.7187 40.0882 11.6831C40.1612 11.6475 40.2918 11.5962 40.3759 11.5695C40.5219 11.5249 40.5772 11.5227 42.2014 11.5227V7.44629L42.1306 7.36164C42.0908 7.31487 42.0244 7.24804 41.9138 7.15671L41.6991 7.37724C41.5376 7.53985 41.4491 7.61113 41.3495 7.65791C41.2367 7.71137 41.199 7.71805 41.095 7.70469C41.0286 7.698 40.8937 7.66459 40.7963 7.63118C40.6458 7.58217 40.5994 7.55321 40.4954 7.44852C40.4268 7.37946 40.3383 7.26809 40.294 7.20126C40.252 7.13443 40.1966 7.02974 40.1723 6.96737C40.1457 6.90722 40.0749 6.65996 40.013 6.42162C39.9422 6.14317 39.9001 5.93155 39.8979 5.83131C39.8935 5.71771 39.9045 5.63306 39.9422 5.51946C39.9709 5.43481 40.0285 5.28334 40.0727 5.18532C40.1148 5.08731 40.3936 4.60616 40.6923 4.1161C40.9888 3.62604 41.4093 2.93327 41.6261 2.57909C41.843 2.22491 42.0974 1.8039 42.1948 1.64351C42.2922 1.48313 42.4891 1.15791 42.6351 0.919559C42.8299 0.596564 42.9383 0.445091 43.0534 0.32703C43.164 0.213425 43.2525 0.146598 43.3632 0.0931371C43.476 0.0374483 43.5601 0.0151727 43.673 0.00626252C43.757 -0.000420143 43.8721 -0.0026477 43.9274 0.00403496V0.00403496ZM7.35188 8.56007C7.46473 8.56007 7.56431 8.57343 7.6329 8.60016C7.69044 8.62244 7.7878 8.67813 7.84755 8.72713C7.93606 8.79619 8.02015 8.91202 8.25913 9.29293C8.42509 9.55801 8.79684 10.1505 9.08672 10.6094C9.3766 11.0683 9.77269 11.6987 9.96963 12.0083C10.1644 12.3202 10.3967 12.6877 10.4808 12.8281C10.5671 12.9684 10.6976 13.1689 10.7729 13.278C10.8481 13.3849 11.003 13.5921 11.1159 13.7391C11.2287 13.8861 11.4367 14.1223 11.5761 14.2648C11.7155 14.4052 11.9412 14.6056 12.074 14.7059C12.209 14.8061 12.3927 14.9264 12.4834 14.9687C12.5962 15.0244 12.7025 15.0556 12.8153 15.069C12.906 15.0801 13.0454 15.0979 13.1251 15.1091C13.2225 15.1224 13.2977 15.1492 13.3552 15.1915C13.4039 15.2249 13.4747 15.2984 13.5101 15.3497C13.5721 15.4388 13.5787 15.4655 13.5876 15.6615C13.592 15.7818 13.5832 15.9377 13.5677 16.0112C13.5544 16.0847 13.4969 16.2563 13.4415 16.3899C13.3862 16.5236 13.2579 16.7998 13.1517 17.0025C13.0477 17.2052 12.9149 17.4502 12.8574 17.5482C12.802 17.6463 12.6715 17.8623 12.3838 18.3279V20.9007C12.3838 22.3152 12.3927 26.385 12.4059 29.9446C12.417 33.5042 12.4259 36.556 12.4259 36.7275C12.4236 36.9413 12.4126 37.0683 12.3904 37.1284C12.3727 37.1774 12.2001 37.4737 12.0032 37.7856C11.8085 38.0974 11.3947 38.759 11.0849 39.2558C10.7751 39.7525 10.3724 40.3985 10.1887 40.6925C10.005 40.9866 9.48945 41.813 9.04246 42.5303C8.59548 43.2475 8.00908 44.1831 7.74354 44.613C7.47579 45.0407 7.22575 45.4417 7.18813 45.504C7.15051 45.5642 7.08634 45.66 7.04651 45.7157C7.00447 45.7714 6.92038 45.8872 6.85842 45.9718C6.79425 46.0565 6.64378 46.2302 6.52207 46.3527C6.34726 46.5309 6.26317 46.5978 6.13262 46.6624C6.04189 46.7092 5.89806 46.7715 5.81176 46.8005C5.72767 46.8294 5.5086 46.8829 5.32494 46.9185C5.14349 46.9542 4.94876 46.9898 4.89344 46.9965C4.83812 47.0054 4.66552 46.9965 4.5062 46.9787C4.34245 46.9586 4.1433 46.9185 4.04151 46.8874C3.94415 46.8539 3.74499 46.7693 3.59895 46.6958C3.4529 46.6223 3.27809 46.5176 3.21171 46.4597C3.14532 46.404 3.01034 46.2792 2.91519 46.1857C2.81783 46.0921 2.66514 45.9317 2.5722 45.827C2.48148 45.7223 2.33986 45.5352 2.2602 45.4105C2.18054 45.288 2.10751 45.1677 2.09424 45.1476C2.07432 45.1142 2.05883 45.1254 1.97253 45.2367C1.91721 45.308 1.80879 45.4261 1.72912 45.5018C1.64946 45.5776 1.52555 45.6667 1.45252 45.7023C1.33746 45.758 1.30426 45.7647 1.19805 45.7513C1.13166 45.7446 0.996683 45.7112 0.89932 45.6778C0.748849 45.6288 0.702379 45.5998 0.598377 45.4951C0.52978 45.4261 0.441268 45.3147 0.397012 45.2479C0.354968 45.181 0.299648 45.0741 0.275307 45.014C0.248753 44.9516 0.177943 44.7066 0.115985 44.4682C0.0451746 44.1898 0.00313115 43.9782 0.000918334 43.8779C-0.00350729 43.7643 0.00755677 43.6797 0.0451746 43.5661C0.0739411 43.4814 0.131474 43.33 0.17573 43.2319C0.217774 43.1339 0.496588 42.6528 0.795318 42.1627C1.09183 41.6727 1.51227 40.9821 1.72912 40.6257C1.94598 40.2693 2.20045 39.8505 2.29782 39.6901C2.39518 39.5297 2.59212 39.2045 2.73817 38.9662C2.93289 38.6432 3.04132 38.4917 3.15639 38.3736C3.27588 38.2511 3.35111 38.1954 3.48388 38.1331C3.64542 38.0573 3.66755 38.0529 3.88219 38.0529C4.08577 38.0529 4.12117 38.0596 4.2296 38.113C4.29598 38.1464 4.40663 38.2266 4.47301 38.289C4.55488 38.3647 4.62569 38.4627 4.69208 38.5897C4.7474 38.6922 4.86246 38.9573 4.95098 39.1778C5.03949 39.3983 5.16562 39.7079 5.22979 39.8683C5.29618 40.0287 5.3869 40.2292 5.43558 40.3138C5.48426 40.3985 5.56614 40.5255 5.61925 40.5923C5.67457 40.6591 5.77414 40.7727 5.84274 40.844C5.91134 40.9153 6.03083 41.0222 6.11049 41.0801C6.19015 41.1403 6.31186 41.2205 6.38267 41.2583C6.45126 41.2962 6.52207 41.3229 6.53756 41.3185C6.55084 41.314 6.67033 41.138 6.79867 40.9242C6.92702 40.7103 7.32754 40.0465 8.34543 38.3536V36.0481C8.34543 34.7806 8.34322 33.747 8.33879 33.7537C8.33436 33.7604 7.96704 34.3373 7.52226 35.0345C7.07749 35.7318 6.65042 36.4156 6.56854 36.5493C6.48888 36.6829 6.39594 36.821 6.36054 36.8545C6.32735 36.8879 6.2499 36.9369 6.18794 36.9636C6.10606 36.9992 6.03304 37.0126 5.91134 37.0126C5.76529 37.0126 5.72767 37.0037 5.59048 36.9346C5.50639 36.8901 5.33601 36.7787 5.2143 36.6874C5.0926 36.5961 4.93991 36.4624 4.87353 36.3911C4.80714 36.3176 4.67659 36.1595 4.58365 36.0369C4.4885 35.9144 4.32696 35.6783 4.22517 35.5135C4.12117 35.3486 3.95521 35.0568 3.85342 34.8675C3.75163 34.6781 3.57903 34.3618 3.47282 34.1658C3.36439 33.9698 3.23384 33.7403 3.18294 33.6579C3.13205 33.5755 3.01034 33.3906 2.91076 33.2458C2.8134 33.1033 2.5368 32.7045 2.29782 32.3615C1.99245 31.9271 1.81542 31.6954 1.71142 31.5974C1.62955 31.5195 1.4835 31.4081 1.38614 31.3479C1.28877 31.2878 1.11396 31.1965 0.998896 31.1408C0.88383 31.0873 0.720082 31.0205 0.633782 30.9893C0.525355 30.9514 0.452332 30.9091 0.390373 30.8467C0.341691 30.7977 0.275307 30.702 0.242115 30.6351C0.208923 30.5683 0.166879 30.448 0.144751 30.3678C0.118197 30.2609 0.111559 30.1696 0.12041 30.0225C0.129261 29.8755 0.151389 29.7642 0.208923 29.5993C0.250966 29.4768 0.350542 29.2318 0.432416 29.0536C0.51429 28.8754 0.629357 28.6504 0.68689 28.5524C0.746636 28.4543 0.810807 28.3385 0.832935 28.2962C0.852851 28.2539 0.943576 28.1024 1.19584 27.7059L1.19805 22.6315C1.19805 17.918 1.20026 17.5482 1.23567 17.4079C1.26886 17.2743 1.35516 17.1339 2.03449 16.1003C2.45493 15.4633 2.99706 14.6368 3.24269 14.2626C3.4861 13.8884 3.91759 13.2357 4.19641 12.8102C4.47744 12.3825 4.90229 11.7366 5.14128 11.3735C5.38026 11.0081 5.83168 10.3176 6.14368 9.84091C6.4579 9.36199 6.75442 8.92093 6.80753 8.86079C6.85842 8.79842 6.96242 8.70709 7.03987 8.65363C7.17485 8.5623 7.18592 8.56007 7.35188 8.56007V8.56007ZM5.90691 15.6971C5.8538 15.7729 5.74316 15.9333 5.65908 16.0558L5.50861 16.2785C5.52852 21.6314 5.5418 24.2376 5.54844 25.5229L5.56171 27.8618C5.89806 28.2071 6.0773 28.4031 6.17909 28.5189C6.27866 28.6348 6.43135 28.8197 6.51986 28.931C6.60616 29.0424 6.74557 29.2273 6.82965 29.3431C6.91595 29.459 7.062 29.6773 7.15715 29.8288L7.32754 30.1005C7.45588 29.8933 7.55103 29.7597 7.61963 29.6728C7.68822 29.5837 7.80108 29.4523 7.86746 29.3832L7.99138 29.254V18.4615C7.58865 18.0093 7.43154 17.8289 7.38286 17.7688C7.33196 17.7086 7.22796 17.575 7.1483 17.4703C7.06864 17.3656 6.958 17.2163 6.90268 17.1361C6.84736 17.056 6.7345 16.88 6.65263 16.7463C6.57075 16.6127 6.42692 16.3565 6.33177 16.1783C6.23662 16.0001 6.12377 15.7907 6.07951 15.7105L6.00206 15.5635L5.90691 15.6971ZM20.184 8.56675C20.2924 8.57121 20.4097 8.59125 20.4606 8.61353C20.5093 8.63581 20.5933 8.68927 20.6487 8.73159C20.7217 8.79173 20.8279 8.94098 21.0492 9.29293C21.2151 9.55801 21.5869 10.1483 21.8768 10.6094C22.1644 11.0683 22.5627 11.6987 22.7597 12.0083C22.9544 12.318 23.1845 12.6877 23.2708 12.8281C23.3549 12.9662 23.4877 13.1689 23.5629 13.2758C23.6382 13.3827 23.7931 13.5899 23.9059 13.7369C24.0188 13.8839 24.2024 14.1 24.3131 14.2158C24.4237 14.3339 24.6184 14.5099 24.7446 14.6101C24.8707 14.7103 25.019 14.8217 25.0743 14.8596C25.1296 14.8952 25.2447 14.9576 25.3332 14.9955C25.4593 15.0489 25.5478 15.069 25.7426 15.0868C25.924 15.1024 26.0192 15.1224 26.09 15.1581C26.1453 15.187 26.2227 15.2494 26.2626 15.2984C26.3024 15.3474 26.3466 15.4276 26.3599 15.4766C26.3732 15.5256 26.3843 15.6392 26.3821 15.7328C26.3798 15.8241 26.3688 15.9533 26.3555 16.0224C26.3422 16.0892 26.2803 16.2696 26.2183 16.4233C26.1586 16.5748 26.101 16.7107 26.0922 16.7241C26.0833 16.7352 26.0059 16.88 25.9196 17.047C25.8333 17.2119 25.7138 17.4324 25.654 17.5371C25.5943 17.6396 25.4571 17.8712 25.1539 18.3724L25.1893 28.1737L24.7623 28.764C24.5277 29.087 24.1316 29.635 23.8838 29.978C23.6337 30.321 23.3925 30.6507 23.3483 30.7131C23.3018 30.7732 23.0186 31.1653 22.7176 31.5818C22.4145 31.9984 22.1312 32.3882 22.087 32.4506C22.0405 32.5107 21.8126 32.827 21.5758 33.1523C21.3413 33.4753 21.1421 33.747 21.1355 33.7537C21.1266 33.7582 20.7571 34.3351 20.3123 35.0345C19.8675 35.7318 19.4383 36.4134 19.3586 36.5493C19.2789 36.6829 19.186 36.821 19.1506 36.8545C19.1152 36.8856 19.0377 36.9346 18.978 36.9636C18.8961 36.9992 18.8231 37.0126 18.7014 37.0126C18.5531 37.0126 18.5177 37.0037 18.3805 36.9324C18.2942 36.8901 18.1261 36.7787 18.0043 36.6874C17.8826 36.5961 17.73 36.4624 17.6636 36.3889C17.5972 36.3176 17.4666 36.1595 17.3737 36.0369C17.2785 35.9144 17.117 35.6783 17.0152 35.5135C16.9112 35.3464 16.743 35.0568 16.6435 34.8675C16.5417 34.6759 16.3691 34.3618 16.2607 34.1658C16.1522 33.9698 16.0217 33.7403 15.973 33.6579C15.9221 33.5755 15.8004 33.3884 15.7008 33.2458C15.6034 33.101 15.3268 32.7045 15.0857 32.3615C14.7825 31.9249 14.6055 31.6932 14.5015 31.5952C14.4196 31.5195 14.2735 31.4059 14.1762 31.3479C14.0788 31.2878 13.904 31.1942 13.7889 31.1408C13.6739 31.0873 13.5079 31.0183 13.4238 30.9893C13.3154 30.9514 13.2424 30.9091 13.1804 30.8467C13.1317 30.7977 13.0654 30.702 13.0322 30.6351C12.999 30.5661 12.9569 30.4458 12.9348 30.3678C12.9105 30.2653 12.9016 30.1651 12.9082 30.0337C12.9149 29.8911 12.9392 29.7797 13.0034 29.5882C13.0499 29.4456 13.145 29.2206 13.2136 29.087C13.2822 28.9511 13.4128 28.7261 13.5013 28.5858C13.5898 28.4432 13.7358 28.2249 13.9881 27.873V22.7206C13.9881 17.9158 13.9903 17.5594 14.0257 17.4146C14.0611 17.272 14.1297 17.1584 14.8245 16.1003C15.2428 15.4633 15.7871 14.6346 16.0305 14.2626C16.2761 13.8884 16.7054 13.2335 16.9865 12.808C17.2653 12.3826 17.6901 11.7366 17.9291 11.3712C18.1703 11.0081 18.6284 10.3087 18.9492 9.81864C19.2723 9.32857 19.5887 8.86747 19.6551 8.79619C19.7193 8.72491 19.8233 8.64249 19.8852 8.6113C19.9826 8.56452 20.018 8.55784 20.184 8.56675V8.56675ZM18.697 15.6971C18.6439 15.7707 18.5465 15.9155 18.4779 16.0201L18.354 16.2073L18.3473 27.8284C18.6992 28.216 18.8806 28.4187 18.9758 28.5301C19.0731 28.6392 19.2214 28.8197 19.3099 28.931C19.3962 29.0402 19.5356 29.2251 19.6197 29.3431C19.7038 29.459 19.852 29.6773 19.945 29.8265L20.1176 30.1005C20.2459 29.8933 20.3389 29.7597 20.4097 29.6706C20.4783 29.5815 20.5911 29.4523 20.6575 29.381L20.7814 29.254C20.7814 20.7582 20.7726 18.495 20.7615 18.466C20.7504 18.4393 20.6332 18.2945 20.5004 18.1452C20.3698 17.9982 20.2216 17.8267 20.1707 17.7665C20.122 17.7086 20.0158 17.5727 19.9383 17.4703C19.8587 17.3656 19.748 17.2141 19.6927 17.1361C19.6374 17.056 19.5245 16.88 19.4427 16.7463C19.3608 16.6104 19.217 16.3543 19.1218 16.1783C19.0267 16.0001 18.9138 15.7885 18.8696 15.7083L18.7899 15.5635L18.697 15.6971ZM32.6775 8.72268C32.7749 8.72713 32.8921 8.74718 32.943 8.76946C32.9917 8.78951 33.0758 8.84297 33.1311 8.88752C33.2019 8.94543 33.3104 9.09691 33.5316 9.44886C33.6976 9.71171 34.0694 10.3042 34.3592 10.7631C34.6469 11.222 35.0452 11.8524 35.2399 12.1642C35.4369 12.4739 35.667 12.8414 35.7533 12.9818C35.8374 13.1221 35.9702 13.3248 36.0454 13.4317C36.1206 13.5387 36.2755 13.7458 36.3884 13.8928C36.5012 14.0399 36.6849 14.2537 36.7955 14.3718C36.9062 14.4876 37.1009 14.6658 37.227 14.7638C37.3532 14.864 37.5014 14.9754 37.5567 15.0133C37.6099 15.0512 37.7271 15.1113 37.8156 15.1492C37.9418 15.2026 38.0303 15.2227 38.225 15.2405C38.4065 15.2583 38.5016 15.2761 38.5724 15.314C38.6255 15.3407 38.703 15.4031 38.745 15.4521C38.7849 15.5011 38.8291 15.5813 38.8424 15.6303C38.8557 15.6793 38.8645 15.7952 38.8645 15.8865C38.8623 15.9778 38.849 16.1092 38.8358 16.1761C38.8225 16.2429 38.7627 16.4233 38.7008 16.577C38.641 16.7307 38.5835 16.8666 38.5746 16.8778C38.5658 16.8911 38.4883 17.0359 38.402 17.2007C38.3157 17.3656 38.1963 17.5861 38.1365 17.6908C38.0745 17.7955 37.9396 18.0205 37.8356 18.192C37.7316 18.3635 37.6453 18.5172 37.6453 18.5328C37.6453 18.5484 37.6342 18.5596 37.6231 18.5596C37.6076 18.5596 37.601 19.1343 37.601 20.2369C37.601 21.1591 37.5944 23.6562 37.57 29.6639L37.7116 29.8577C37.7913 29.9646 37.9351 30.1807 38.2095 30.6284L38.3091 30.5638C38.3622 30.5282 38.4419 30.4881 38.4861 30.477C38.5282 30.4658 38.6167 30.4547 38.6853 30.4547C38.7517 30.4547 38.8601 30.4725 38.9287 30.4926C38.9951 30.5126 39.0991 30.5683 39.161 30.6128C39.2208 30.6596 39.3004 30.7242 39.3358 30.7599C39.3713 30.7933 39.4686 30.9269 39.5505 31.0561C39.6346 31.1853 39.7165 31.3346 39.7342 31.3903C39.7519 31.446 39.7762 31.5685 39.7895 31.6643C39.8028 31.7578 39.8138 31.9717 39.8138 32.1365C39.8138 32.357 39.8005 32.4929 39.7696 32.6377C39.7452 32.7491 39.701 32.8939 39.6744 32.9607C39.6456 33.0342 39.0969 33.8495 38.3534 34.9254C37.6519 35.9389 37.0301 36.821 36.9704 36.8879C36.8951 36.9703 36.8088 37.0327 36.7048 37.0839C36.5588 37.1552 36.5344 37.1596 36.3176 37.1596C36.1627 37.1596 36.0432 37.1485 35.9635 37.124C35.8684 37.095 35.8131 37.0594 35.7201 36.9614C35.6515 36.8923 35.5564 36.7676 35.5077 36.6807C35.459 36.5961 35.3461 36.3644 35.2554 36.1684C35.1669 35.9723 35.0098 35.6315 34.908 35.411C34.8062 35.1905 34.7044 34.9744 34.6823 34.9321C34.6602 34.8898 34.5805 34.745 34.5031 34.6091C34.4256 34.4754 34.3017 34.2683 34.2287 34.1524C34.1557 34.0366 34.0406 33.8651 33.9698 33.7737C33.9012 33.6824 33.7861 33.551 33.7131 33.4842C33.6401 33.4173 33.525 33.3171 33.4542 33.2614C33.3856 33.2057 33.3259 33.1656 33.3214 33.1723C33.317 33.179 32.7527 33.9965 32.0668 34.9878C31.383 35.9813 30.7767 36.8411 30.7192 36.9012C30.6572 36.9658 30.5576 37.0371 30.4647 37.0839C30.3186 37.1552 30.2943 37.1596 30.0774 37.1596C29.9225 37.1596 29.8031 37.1485 29.7234 37.124C29.6282 37.095 29.5729 37.0594 29.48 36.9614C29.4114 36.8923 29.3162 36.7676 29.2676 36.6807C29.2189 36.5961 29.106 36.3644 29.0153 36.1684C28.9268 35.9723 28.7697 35.6315 28.6679 35.411C28.5661 35.1905 28.4643 34.9744 28.4422 34.9321C28.4201 34.8898 28.3404 34.745 28.2629 34.6091C28.1855 34.4754 28.0616 34.2683 27.9886 34.1524C27.9155 34.0366 27.7983 33.8651 27.7297 33.7737C27.6588 33.6824 27.5548 33.5621 27.4951 33.5042C27.4354 33.4485 27.338 33.3639 27.2782 33.3126C27.2163 33.2636 27.1012 33.1812 27.0238 33.13C26.9441 33.0787 26.8047 33.0142 26.714 32.983C26.621 32.954 26.4573 32.9139 26.3489 32.8961C26.2028 32.8716 26.1165 32.8426 26.0302 32.7892C25.966 32.7491 25.8842 32.68 25.8488 32.6377C25.8156 32.5954 25.7647 32.5107 25.7359 32.4484C25.6872 32.3459 25.685 32.3102 25.685 31.5351L25.7647 31.3012C25.8089 31.172 25.8974 30.9626 25.9616 30.8334C26.0258 30.7042 26.1254 30.5237 26.1807 30.4324C26.2382 30.3411 26.3068 30.2253 26.3312 30.1762C26.3555 30.1272 26.4506 29.9869 26.5414 29.8644C26.6321 29.7419 26.7627 29.5815 26.9552 29.3743L26.964 28.2606C26.9662 27.648 26.9795 27.1178 26.9906 27.0799C26.9994 27.0443 27.2982 26.5676 27.65 26.0219C28.0018 25.4761 28.3559 24.9281 28.4378 24.8034C28.5174 24.6764 28.6612 24.4514 28.7586 24.3022C28.856 24.1507 29.1901 23.6317 29.5021 23.1483C29.8141 22.6649 30.4868 21.6224 30.9958 20.8317C31.5047 20.0409 32.1132 19.0964 32.3478 18.7333C32.5846 18.368 32.7771 18.0628 32.7771 18.0539C32.7771 18.045 32.7041 17.9559 32.6155 17.8579C32.527 17.7599 32.4031 17.6151 32.3412 17.5349C32.2792 17.4547 32.1531 17.2743 32.0623 17.1339C31.9694 16.9936 31.8256 16.753 31.7415 16.5993C31.6574 16.4456 31.5423 16.2184 31.4848 16.0937C31.4295 15.9667 31.383 15.8553 31.383 15.8419C31.383 15.8308 31.3742 15.8197 31.3653 15.8219C31.3565 15.8219 31.2126 16.0513 30.7413 16.8443L30.7391 20.7982L30.073 21.8452C29.7079 22.4221 29.2322 23.1684 29.0197 23.5047C28.8051 23.8411 28.4643 24.3802 28.2585 24.7031C28.0527 25.0239 27.8491 25.3202 27.8049 25.3603C27.7606 25.4004 27.6943 25.4516 27.6566 25.4761C27.5969 25.5162 27.5504 25.5207 27.2893 25.5207C26.9928 25.5207 26.9884 25.5207 26.8268 25.4427C26.6985 25.3826 26.6277 25.3269 26.4993 25.1932C26.3754 25.0618 26.3135 24.9705 26.2382 24.8145C26.1829 24.7009 26.1276 24.5517 26.1143 24.4848C26.0966 24.4069 26.0922 24.1908 26.1054 23.4045L26.1895 23.1595C26.236 23.0258 26.3135 22.8454 26.3644 22.7585C26.413 22.6738 26.4861 22.5558 26.6033 22.3909L26.6078 19.9028C26.6122 17.6596 26.6166 17.4035 26.6498 17.3233C26.6697 17.2743 26.7472 17.1272 26.8202 16.9958C26.8954 16.8644 26.9574 16.7508 26.9574 16.7441C26.9574 16.7374 27.2185 16.3342 27.5371 15.8486C27.858 15.3608 28.2829 14.7126 28.4842 14.4052C28.6834 14.1 29.0286 13.5743 29.2499 13.2357C29.4711 12.8993 29.8163 12.3736 30.0177 12.0662C30.2191 11.7611 30.6196 11.1485 30.9072 10.7074C31.1971 10.2664 31.5468 9.72953 31.6862 9.51569C31.8256 9.30184 31.976 9.08132 32.0203 9.02785C32.0646 8.97439 32.1464 8.89866 32.2017 8.86302C32.2549 8.82515 32.3456 8.77614 32.4009 8.75387C32.4761 8.72268 32.5403 8.716 32.6775 8.72268V8.72268ZM32.7085 23.0481C32.4562 23.4646 31.996 24.2153 31.6839 24.7143L31.1175 25.6209V29.3409C31.3188 29.5926 31.4516 29.7753 31.5401 29.9134C31.6286 30.0493 31.7216 30.1941 31.7437 30.2364L31.7857 30.3099C31.8388 30.1896 31.9274 30.0092 32.0137 29.831C32.1 29.6528 32.2261 29.4189 32.2947 29.3075C32.3633 29.1984 32.5027 28.989 32.6023 28.8464C32.7041 28.7016 32.8789 28.4543 32.9917 28.294L33.1975 28.0044L33.1643 22.2929L32.7085 23.0481Z"/>
</svg>
