<svg xmlns="http://www.w3.org/2000/svg" fill="none" xmlns:xlink="http://www.w3.org/1999/xlink" version="1.1" x="0px" y="0px" viewBox="0 0 28 28" xml:space="preserve">
    <g transform="translate(-31 -201)">
        <g xmlns="http://www.w3.org/2000/svg" xmlns:xlink="http://www.w3.org/1999/xlink">
            <path d="M45,228c7.18,0,13-5.82,13-13s-5.82-13-13-13s-13,5.82-13,13S37.82,228,45,228z M34.749,218.96    C34.831,218.98,34.913,219,35,219h6.612l2.315,6.945C39.727,225.537,36.22,222.754,34.749,218.96z M48.567,212.136l-1.856-1.336    l3.027-2.18L48.567,212.136z M51.899,217h-2.845l0.551-1.652L51.899,217z M47.905,214.123L46.946,217h-3.893l-0.958-2.877    L45,212.032L47.905,214.123z M41.433,212.136l-1.172-3.516l3.028,2.18L41.433,212.136z M40.396,215.348L40.946,217h-2.846    L40.396,215.348z M43.721,219h2.559L45,222.838L43.721,219z M46.072,225.945L48.388,219H55c0.087,0,0.17-0.02,0.251-0.04    C53.78,222.754,50.273,225.537,46.072,225.945z M56,215c0,0.806-0.093,1.589-0.258,2.346c-0.049-0.056-0.096-0.113-0.157-0.157    l-5.317-3.828l2.152-6.458C54.614,208.915,56,211.795,56,215z M45,204c2.042,0,3.949,0.569,5.59,1.543L45,209.567l-5.59-4.024    C41.051,204.569,42.958,204,45,204z M37.58,206.903l2.152,6.457l-5.316,3.828c-0.063,0.044-0.109,0.101-0.158,0.157    C34.093,216.589,34,215.806,34,215C34,211.795,35.386,208.915,37.58,206.903z"/>
        </g>
    </g>
</svg>
