<?xml version="1.0" standalone="no"?>
<!DOCTYPE svg PUBLIC "-//W3C//DTD SVG 20010904//EN"
 "http://www.w3.org/TR/2001/REC-SVG-20010904/DTD/svg10.dtd">
<svg version="1.0" xmlns="http://www.w3.org/2000/svg"
 width="2480.000000pt" height="3437.000000pt" viewBox="0 0 2480.000000 3437.000000"
 preserveAspectRatio="xMidYMid meet">

<g transform="translate(0.000000,3437.000000) scale(0.100000,-0.100000)"
fill="#000000" stroke="none">
<path d="M10038 24664 c-24 -13 -28 -21 -28 -61 0 -25 2 -44 3 -42 17 20 67
119 60 119 -4 -1 -20 -8 -35 -16z"/>
<path d="M18050 21343 c-258 -12 -643 -69 -896 -134 -664 -167 -1233 -458
-1830 -933 -148 -118 -543 -492 -719 -682 -423 -455 -778 -931 -1112 -1489
-998 -1667 -1186 -3189 -551 -4465 137 -276 268 -473 467 -703 293 -336 687
-629 1101 -817 511 -233 1019 -345 1620 -357 381 -8 677 18 1050 93 1612 322
3196 1420 4222 2929 186 273 384 621 503 885 241 532 429 1109 545 1672 30
148 57 344 48 353 -4 4 -431 25 -434 21 -1 0 -158 -314 -349 -696 -191 -382
-350 -699 -355 -703 -7 -8 -750 21 -759 29 -4 4 345 708 569 1144 66 129 120
240 120 247 0 13 -65 19 -292 29 -141 6 -148 5 -148 -13 0 -30 -73 -171 -129
-251 -61 -85 -123 -134 -206 -161 -67 -23 -170 -41 -229 -41 -54 0 -37 -13 54
-40 62 -18 83 -30 119 -67 43 -45 43 -46 39 -107 -3 -57 -18 -91 -168 -392
-91 -181 -166 -331 -167 -333 -3 -5 -651 19 -680 25 -13 2 -23 10 -23 17 0 6
72 156 160 332 180 358 197 409 145 433 -15 7 -53 15 -85 19 l-57 6 -189 -377
c-104 -207 -196 -386 -205 -398 l-16 -21 -374 18 c-206 9 -376 19 -378 20 -4
5 829 1669 862 1723 32 49 5 47 327 32 433 -20 805 -49 947 -75 183 -34 259
-97 272 -228 l6 -58 75 146 c41 81 78 148 81 151 4 2 262 -7 575 -21 313 -14
649 -28 747 -31 l177 -7 0 90 c0 199 -46 549 -100 748 -95 357 -224 609 -480
936 -103 133 -331 360 -481 479 -277 221 -684 452 -1055 600 -788 312 -1604
459 -2364 423z m-2957 -2929 c259 -36 440 -122 467 -224 14 -52 -11 -152 -66
-271 l-48 -101 -90 6 c-50 3 -208 11 -351 17 -143 6 -262 13 -265 15 -2 3 17
47 43 100 26 52 47 105 47 119 0 77 -158 70 -234 -11 -39 -42 -76 -122 -76
-164 0 -52 29 -75 230 -181 280 -146 398 -234 436 -324 69 -167 -134 -563
-344 -669 -175 -89 -434 -137 -737 -137 -262 -1 -450 33 -595 106 -135 68
-184 148 -162 265 9 49 119 310 140 332 7 7 702 -19 709 -26 2 -2 -26 -63 -63
-135 -40 -79 -69 -150 -71 -175 l-5 -43 51 -13 c87 -21 171 9 230 82 33 41 72
140 74 188 2 67 -45 104 -339 264 -264 145 -324 207 -324 337 0 185 183 454
370 542 233 109 619 150 973 101z m1337 -84 c602 -26 785 -65 870 -187 32 -46
29 -109 -9 -212 -17 -46 -30 -86 -27 -88 2 -2 29 32 60 77 68 96 140 156 261
215 169 83 348 127 591 145 324 25 649 -43 791 -164 52 -45 93 -126 93 -182 0
-80 -49 -199 -244 -589 -210 -421 -268 -523 -348 -610 -117 -128 -310 -220
-568 -271 -114 -22 -434 -30 -570 -14 -217 25 -389 88 -475 175 -53 52 -81
131 -70 198 11 69 71 210 177 417 54 107 108 214 118 238 l20 44 -73 -75 c-55
-56 -92 -83 -148 -110 -130 -63 -170 -69 -508 -76 l-303 -6 -37 -65 c-20 -36
-92 -181 -160 -322 -68 -142 -136 -270 -150 -286 l-26 -29 -260 13 c-143 7
-310 16 -372 19 l-112 7 10 26 c15 40 831 1663 860 1711 l14 23 180 -6 c99 -3
286 -10 415 -16z m-3078 -1961 c144 -31 248 -136 248 -252 l0 -28 -87 3 c-87
3 -88 3 -101 33 -22 50 -28 58 -55 78 -28 22 -107 33 -161 23 -46 -9 -96 -51
-96 -81 0 -35 61 -81 185 -140 175 -82 229 -141 228 -251 -1 -112 -66 -196
-193 -246 -45 -18 -75 -22 -165 -22 -155 0 -265 38 -329 114 -28 34 -56 116
-56 167 l0 33 93 0 94 0 16 -60 c12 -42 25 -65 43 -76 28 -19 151 -31 208 -20
50 9 96 51 96 86 0 48 -36 79 -174 145 -147 71 -206 121 -226 195 -23 84 17
194 88 244 78 55 229 79 344 55z m655 -52 c3 -4 -15 -75 -40 -157 -26 -83 -47
-155 -47 -160 0 -4 53 -11 118 -14 64 -3 143 -8 174 -11 l57 -5 41 133 c23 72
46 147 51 165 10 29 14 32 52 32 72 0 147 -12 147 -24 0 -14 -246 -836 -251
-840 -2 -2 -46 -1 -96 2 -80 4 -93 7 -93 22 0 9 23 86 50 170 50 152 57 185
43 193 -5 3 -83 8 -174 12 l-167 7 -16 -44 c-9 -23 -29 -94 -46 -156 -17 -62
-37 -128 -44 -147 l-15 -34 -88 6 c-48 3 -90 8 -93 10 -8 7 36 165 140 503 55
178 100 331 100 338 0 12 17 14 95 10 53 -3 98 -8 102 -11z m1191 -72 c4 -3
92 -824 92 -857 0 -15 -9 -16 -87 -11 -49 3 -89 7 -91 8 -1 1 -8 43 -14 93 -8
67 -15 93 -27 97 -9 4 -89 9 -179 12 -188 7 -173 13 -247 -102 l-47 -73 -97 5
c-53 3 -97 7 -99 8 -4 4 235 346 426 613 73 101 137 193 143 204 11 20 17 20
117 14 59 -4 108 -9 110 -11z m611 -25 l84 0 -7 -297 -7 -298 36 53 c20 29 75
117 122 195 47 78 112 183 145 234 l59 92 102 -6 c132 -7 173 -15 169 -34 -4
-23 -249 -830 -253 -833 -11 -9 -169 8 -169 18 0 6 45 148 100 316 54 167 98
306 96 307 -1 2 -85 -132 -186 -297 -100 -164 -191 -306 -200 -315 -14 -13
-32 -14 -100 -9 l-83 7 5 336 5 336 -19 -60 c-10 -33 -48 -163 -83 -290 -35
-126 -70 -248 -78 -270 l-14 -40 -84 4 c-46 2 -85 4 -87 6 -7 6 210 730 248
830 10 27 12 28 63 21 28 -3 90 -6 136 -6z m1041 -63 c0 -7 -56 -200 -124
-428 l-124 -414 -88 -3 c-48 -2 -91 1 -96 6 -7 7 191 707 237 840 6 18 195 17
195 -1z m339 -13 c2 -2 -43 -157 -99 -346 -56 -189 -103 -347 -104 -353 0 -6
30 -11 69 -12 180 -7 379 -23 388 -32 6 -6 3 -32 -9 -75 -15 -54 -23 -66 -39
-66 -74 2 -646 38 -649 41 -2 2 13 60 34 129 21 69 77 256 124 415 48 160 88
295 90 301 3 8 33 10 98 6 51 -2 95 -6 97 -8z m1064 -54 c102 -38 184 -136
203 -242 l6 -38 -49 0 c-28 0 -71 -3 -96 -6 l-46 -7 -10 40 c-17 62 -45 91
-108 109 -131 38 -250 -32 -330 -192 -41 -84 -55 -192 -33 -258 19 -57 70
-102 132 -116 81 -18 130 -1 199 69 31 31 60 64 65 74 9 16 15 16 93 3 46 -8
89 -20 95 -26 31 -31 -102 -179 -205 -228 -89 -43 -157 -56 -257 -49 -206 13
-326 144 -325 358 1 148 48 271 144 373 135 145 349 200 522 136z m581 -38 c2
-4 -52 -197 -122 -430 l-126 -422 -91 0 c-51 0 -94 2 -97 5 -3 3 13 70 37 148
23 78 79 269 126 425 l83 282 93 0 c50 0 94 -3 97 -8z m623 -35 c3 -4 92 -872
89 -875 -2 -1 -43 1 -92 5 l-89 8 -10 88 c-7 66 -14 91 -27 98 -9 5 -89 12
-178 16 -186 7 -175 11 -246 -98 -23 -37 -47 -70 -52 -73 -18 -11 -193 6 -189
18 5 13 249 361 447 640 l135 188 105 -7 c58 -4 106 -7 107 -8z m964 -56 c118
-47 209 -150 209 -237 l0 -34 -88 0 -89 0 -18 39 c-35 78 -101 114 -205 114
-176 0 -312 -143 -336 -353 -20 -179 95 -263 310 -225 48 8 96 20 106 25 15 8
50 96 50 123 0 3 -52 8 -115 12 -63 4 -115 11 -115 15 0 4 9 38 21 75 l20 67
72 -6 c40 -3 134 -9 210 -12 75 -4 137 -10 137 -13 0 -12 -41 -157 -71 -251
-19 -60 -40 -103 -55 -117 -45 -42 -225 -83 -359 -83 -239 0 -385 116 -402
319 -20 240 152 493 377 556 82 22 267 15 341 -14z m907 -46 c8 -7 92 -787 92
-856 0 -21 -2 -21 -87 -14 -49 4 -89 8 -90 9 -1 1 -7 43 -14 93 l-12 92 -45 7
c-24 4 -108 7 -185 8 l-140 1 -60 -87 -59 -88 -46 1 c-26 1 -70 4 -99 7 l-52
7 143 206 c79 113 207 295 286 405 78 109 145 204 147 211 4 11 29 12 112 7
58 -4 107 -8 109 -9z"/>
<path d="M16338 17796 c-60 -119 -108 -219 -108 -222 0 -4 40 -5 89 -2 73 3
95 8 124 28 68 47 187 263 187 341 0 45 -27 59 -120 66 l-65 5 -107 -216z"/>
<path d="M18174 17970 c-72 -22 -98 -65 -356 -581 -136 -272 -254 -511 -262
-533 -36 -87 -12 -122 76 -114 58 6 91 28 134 89 45 63 534 1042 541 1082 3
23 0 37 -11 46 -20 17 -83 23 -122 11z"/>
<path d="M14931 15899 c-57 -82 -101 -153 -97 -156 3 -3 58 -8 122 -11 l117
-5 -7 94 c-12 170 -19 229 -25 229 -3 0 -53 -68 -110 -151z"/>
<path d="M19196 15681 c-53 -77 -98 -146 -102 -154 -7 -21 24 -27 140 -27 l99
0 -6 53 c-4 28 -9 100 -13 160 -4 59 -10 107 -14 107 -4 0 -51 -63 -104 -139z"/>
<path d="M21143 15683 c-73 -102 -186 -273 -182 -277 2 -2 58 -6 124 -7 l120
-2 -2 24 c-1 13 -7 85 -14 159 -6 74 -12 137 -14 138 -2 2 -16 -14 -32 -35z"/>
<path d="M19860 17674 c-50 -103 -90 -191 -90 -195 0 -13 108 -11 155 2 55 15
111 76 163 177 68 134 55 176 -59 192 -35 5 -67 10 -72 10 -4 0 -48 -84 -97
-186z"/>
</g>
</svg>
